<svg width="520px" height="156px" viewBox="0 0 520 156" version="1.1" xmlns="http://www.w3.org/2000/svg" xmlns:xlink="http://www.w3.org/1999/xlink">
    <title>Artboard</title>
    <g id="Artboard" stroke="none" stroke-width="1" fill="none" fill-rule="evenodd">
        <path d="M70.5,8 C109.568745,8 141,39.4312546 141,78.5 C141,117.568745 109.568745,149 70.5,149 C31.4312546,149 0,117.568745 0,78.5 C0,39.4312546 31.4312546,8 70.5,8 Z M101.931255,43.25 C96.6437546,43.25 87.24375,48.8312454 84.3062546,51.7687546 L79.3125,56.7624954 L85.48125,58.23125 L52.5812546,51.4749954 L52.2874954,51.4749954 C51.99375,51.4749954 51.4062454,51.7687546 51.1125,52.0625 L42.8875046,60.2874954 C42.0062546,61.1687454 42.3,62.6375 43.4749954,63.2250046 L64.0375046,72.0375046 L53.75625,82.3187454 L44.0625,83.4937546 C42.8875046,83.4937546 41.7124954,84.0812454 40.8312454,84.9624954 L35.5437454,90.25 C34.6624954,91.1312454 35.25,92.8937454 36.4249954,93.1875046 L51.7000046,97.5937546 L55.8124954,112.575005 C56.1062546,113.162495 56.6937454,113.75 57.5749954,113.75 C57.8687546,113.75 58.4562454,113.456255 58.7500046,113.162495 L64.0375046,108.168755 C64.9187546,107.287505 65.5062454,106.112495 65.5062454,104.9375 L66.6812546,95.24375 L76.915,85.009 L85.7749954,105.525005 C86.0503946,106.351176 86.8421432,106.660987 87.4241135,106.696486 L87.5374954,106.7 C87.8312546,106.7 88.4187454,106.406255 88.7125046,106.112495 L96.9375,97.8875 C97.5250046,97.2999954 97.5250046,96.7125046 97.5250046,96.125 L92.2375046,69.6875 L96.9375,64.4 C100.4625,60.875 108.100005,47.65625 104.575005,44.13125 C103.9875,43.5437454 103.10625,43.25 101.931255,43.25 Z M100,49 C98.8210571,52.8393868 95.578947,58.7461124 93.5157935,60.8134788 L90.8631617,63.4715095 L86.1473765,68.1968927 L91.7473723,95.6632095 L88.8000083,98.6165723 L79.368424,75.8756525 L75.2421032,80.0103577 L74.909,80.343 L76.9624954,84.9624954 L76.915,85.009 L74.903,80.349 L74.909,80.343 L74.6125046,79.6749954 L74.903,80.349 L63.4526332,91.8238365 C62.62737,92.6507794 62.0588513,93.7349893 61.9867166,94.8363504 L61.9789442,95.0725314 L60.8000014,104.818644 L59.6210585,106 L56.9684267,96.8445518 C56.3789484,95.0725314 54.9052594,93.5958569 53.1368383,93.0051788 L44,90.3471482 L44.8842106,88.8704599 L54.6105272,87.6891175 C55.78947,87.6891175 56.9684267,87.0984394 57.8526373,86.2124292 L69.6421074,74.3989642 L73.7684281,70.2642453 L50.4842065,60.2228007 L53.4315843,57.2694379 L80.8421129,62.8808314 L85.5578982,58.1554482 L88.21053,55.4974175 C90.2736834,53.7253971 96.1684253,50.1813562 100,49 Z" id="Combined-Shape" fill="#55A44F" fill-rule="nonzero"></path>
        <g id="ImaVoyage" transform="translate(161.266466, 58.520000)" fill="#FF8400" fill-rule="nonzero">
            <polygon id="Path" points="10.309 0 0 0 0 41.48 10.309 41.48"></polygon>
            <path d="M58.3748966,10.98 C53.9828966,10.98 50.9938966,12.2 47.8828966,15.006 C45.6258966,12.383 42.4538966,10.98 38.7328966,10.98 C35.4998966,10.98 33.4258966,11.895 31.4738966,13.603 L31.4738966,11.895 L21.5308966,11.895 L21.5308966,41.48 L31.4738966,41.48 L31.4738966,22.509 C32.8768966,20.679 34.4018966,19.947 35.8658966,19.947 C39.0988966,19.947 41.1728966,21.96 41.1728966,26.169 L41.1728966,41.48 L51.0548966,41.48 L51.0548966,24.583 C51.0548966,23.851 50.9938966,23.119 50.9328966,22.387 C52.3968966,20.618 53.9218966,19.947 55.4468966,19.947 C58.6798966,19.947 60.7538966,21.96 60.7538966,26.169 L60.7538966,41.48 L70.6358966,41.48 L70.6358966,24.583 C70.6358966,16.165 65.4508966,10.98 58.3748966,10.98 Z" id="Path"></path>
            <path d="M112.418793,11.895 L102.536793,11.895 L102.536793,13.481 C100.340793,12.078 97.7177931,11.224 94.4237931,11.224 C86.4327931,11.224 79.7227931,17.812 79.7227931,26.657 C79.7227931,35.441 86.4327931,42.09 94.4237931,42.09 C97.7177931,42.09 100.340793,41.236 102.536793,39.833 L102.536793,41.48 L112.418793,41.48 L112.418793,11.895 Z M96.4367931,33.977 C92.4107931,33.977 89.4217931,30.744 89.4217931,26.657 C89.4217931,22.57 92.4107931,19.276 96.4367931,19.276 C98.5717931,19.276 100.645793,19.947 102.536793,22.021 L102.536793,31.232 C100.645793,33.367 98.5717931,33.977 96.4367931,33.977 Z" id="Shape"></path>
            <polygon id="Path" points="163.04669 0 151.70069 0 139.86669 28.121 128.03269 0 116.68669 0 134.68169 41.724 145.11269 41.724"></polygon>
            <path d="M180.673586,11.224 C171.279586,11.224 164.569586,17.751 164.569586,26.657 C164.569586,35.685 171.279586,42.395 180.673586,42.395 C190.006586,42.395 196.655586,35.685 196.655586,26.657 C196.655586,17.751 190.006586,11.224 180.673586,11.224 Z M180.673586,33.855 C176.586586,33.855 173.963586,30.683 173.963586,26.718 C173.963586,22.875 176.586586,19.764 180.673586,19.764 C184.638586,19.764 187.322586,22.875 187.322586,26.718 C187.322586,30.683 184.638586,33.855 180.673586,33.855 Z" id="Shape"></path>
            <polygon id="Path" points="238.560483 11.895 228.190483 11.895 220.504483 30.134 211.964483 11.895 201.533483 11.895 215.563483 41.846 209.951483 55.144 220.382483 55.144"></polygon>
            <path d="M276.073379,11.895 L266.191379,11.895 L266.191379,13.481 C263.995379,12.078 261.372379,11.224 258.078379,11.224 C250.087379,11.224 243.377379,17.812 243.377379,26.657 C243.377379,35.441 250.087379,42.09 258.078379,42.09 C261.372379,42.09 263.995379,41.236 266.191379,39.833 L266.191379,41.48 L276.073379,41.48 L276.073379,11.895 Z M260.091379,33.977 C256.065379,33.977 253.076379,30.744 253.076379,26.657 C253.076379,22.57 256.065379,19.276 260.091379,19.276 C262.226379,19.276 264.300379,19.947 266.191379,22.021 L266.191379,31.232 C264.300379,33.367 262.226379,33.977 260.091379,33.977 Z" id="Shape"></path>
            <path d="M318.527276,11.895 L308.645276,11.895 L308.645276,13.054 C306.449276,11.712 303.826276,10.858 300.593276,10.858 C292.541276,10.858 285.892276,17.019 285.892276,26.047 C285.892276,34.038 292.541276,40.443 300.593276,40.443 C303.826276,40.443 306.449276,39.65 308.645276,38.369 L308.645276,41.175 C308.645276,45.201 306.083276,47.275 302.667276,47.275 C299.007276,47.275 296.933276,45.567 296.506276,42.822 L286.685276,42.822 C287.173276,50.508 293.700276,55.632 302.728276,55.632 C312.000276,55.632 318.527276,50.264 318.527276,40.992 L318.527276,11.895 Z M302.545276,32.574 C298.519276,32.574 295.530276,29.28 295.530276,26.047 C295.530276,21.777 298.519276,18.91 302.545276,18.91 C304.680276,18.91 306.815276,19.581 308.645276,21.655 L308.645276,29.829 C306.815276,31.903 304.680276,32.574 302.545276,32.574 Z" id="Shape"></path>
            <path d="M358.846172,26.047 C358.846172,17.141 352.319172,11.224 343.779172,11.224 C334.263172,11.224 327.980172,17.69 327.980172,26.657 C327.980172,35.685 334.446172,42.151 344.145172,42.151 C351.465172,42.151 357.138172,38.308 358.602172,32.208 L348.781172,32.208 C347.927172,33.55 346.341172,34.343 344.267172,34.343 C340.485172,34.343 338.411172,32.269 337.618172,29.585 L358.663172,29.585 C358.846172,28.426 358.846172,27.206 358.846172,26.047 Z M343.718172,18.849 C346.890172,18.849 349.025172,20.557 349.574172,23.79 L337.557172,23.79 C338.289172,20.801 340.363172,18.849 343.718172,18.849 Z" id="Shape"></path>
        </g>
    </g>
</svg>